<svg id="Layer_1" data-name="Layer 1" xmlns="http://www.w3.org/2000/svg" viewBox="0 0 858 177"><defs><style>.cls-1{fill:#0f560f;}</style></defs><title>Icon Assets</title><path class="cls-1" d="M295.61,7.47v78H283.69l-43-52.8v52.8H226.32v-78h11.92l43,52.8V7.47Z"/><path class="cls-1" d="M324.9,77.48q-9-9.08-9-26v-44h14.48V50.92q0,23,19.83,22.94t19.72-22.94V7.47h14.26v44q0,16.94-9,26t-25.12,9.08Q333.93,86.56,324.9,77.48Z"/><path class="cls-1" d="M418.81,19.73H393V7.47h66.16V19.73H433.29V85.45H418.81Z"/><path class="cls-1" d="M521.07,85.45,505.14,62.61a28.18,28.18,0,0,1-3,.11h-17.6V85.45H470.05v-78h32.08a43.34,43.34,0,0,1,17.66,3.34,25.79,25.79,0,0,1,11.53,9.58,26.84,26.84,0,0,1,4,14.82A26.4,26.4,0,0,1,531,50.36a25.53,25.53,0,0,1-12.31,9.47l17.93,25.62Zm-5.24-61.71q-4.91-4-14.37-4H484.53V50.8h16.93q9.46,0,14.37-4.06t4.9-11.53Q520.73,27.74,515.83,23.74Z"/><path class="cls-1" d="M551.48,7.47H566v78H551.48Z"/><path class="cls-1" d="M602.83,19.73H577V7.47h66.16V19.73H617.31V85.45H602.83Z"/><path class="cls-1" d="M654.07,7.47h14.48v78H654.07Z"/><path class="cls-1" d="M704.53,81.38a38.3,38.3,0,0,1-15-14.37A39.43,39.43,0,0,1,684,46.46a39.46,39.46,0,0,1,5.46-20.55,38.3,38.3,0,0,1,15-14.37,47.21,47.21,0,0,1,43,0,38.44,38.44,0,0,1,15,14.31A39.39,39.39,0,0,1,768,46.46a39.39,39.39,0,0,1-5.46,20.61,38.44,38.44,0,0,1-15,14.31,47.21,47.21,0,0,1-43,0Zm35.54-11a25.36,25.36,0,0,0,9.8-9.8,28,28,0,0,0,3.56-14.09,28,28,0,0,0-3.56-14.09,25.43,25.43,0,0,0-9.8-9.8,29.84,29.84,0,0,0-28.08,0,25.43,25.43,0,0,0-9.8,9.8,28,28,0,0,0-3.56,14.09,28,28,0,0,0,3.56,14.09,25.36,25.36,0,0,0,9.8,9.8,29.84,29.84,0,0,0,28.08,0Z"/><path class="cls-1" d="M852.69,7.47v78H840.77l-43-52.8v52.8H783.4v-78h11.92l43,52.8V7.47Z"/><path class="cls-1" d="M225.4,104.55h7.25v68.6H225.4Z"/><path class="cls-1" d="M312.32,104.55v68.6h-6l-44.09-55.67v55.67H255v-68.6h6l44.2,55.66V104.55Z"/><path class="cls-1" d="M348,110.82h-24.1v-6.27h55.46v6.27H355.24v62.33H348Z"/><path class="cls-1" d="M439.42,166.87v6.28H390.91v-68.6h47v6.27H398.17v24.4h35.47v6.17H398.17v25.48Z"/><path class="cls-1" d="M504.39,138.85h7V165A33.43,33.43,0,0,1,500,171.48a42.27,42.27,0,0,1-13.81,2.25,37.91,37.91,0,0,1-18.53-4.51,33.25,33.25,0,0,1-12.93-12.49,36.31,36.31,0,0,1,0-35.77,33.32,33.32,0,0,1,12.93-12.49A38.09,38.09,0,0,1,486.26,104a40.12,40.12,0,0,1,14.41,2.5,28.46,28.46,0,0,1,11.07,7.4l-4.5,4.6q-8.14-8-20.68-8a30.78,30.78,0,0,0-15,3.67A27,27,0,0,0,461,124.29a28.24,28.24,0,0,0-3.82,14.56,28,28,0,0,0,3.82,14.5,27.53,27.53,0,0,0,10.49,10.19,30.22,30.22,0,0,0,15,3.73q10.59,0,17.93-5.3Z"/><path class="cls-1" d="M578.67,173.15,563,151.1a51.08,51.08,0,0,1-5.48.29H539.08v21.76h-7.25v-68.6h25.68q13.13,0,20.58,6.27t7.44,17.25a22.31,22.31,0,0,1-4.06,13.57,22.64,22.64,0,0,1-11.62,8l16.76,23.52Zm-5.78-32.44q5.39-4.52,5.39-12.64,0-8.32-5.39-12.79t-15.58-4.46H539.08v34.4h18.23Q567.5,145.22,572.89,140.71Z"/><path class="cls-1" d="M645.7,154.82H607.48l-8.23,18.33h-7.54l31.36-68.6h7.15l31.36,68.6h-7.65Zm-2.64-5.88-16.47-36.85-16.46,36.85Z"/><path class="cls-1" d="M682.84,110.82h-24.1v-6.27H714.2v6.27H690.1v62.33h-7.26Z"/><path class="cls-1" d="M774.27,166.87v6.28h-48.5v-68.6h47v6.27H733v24.4h35.47v6.17H733v25.48Z"/><path class="cls-1" d="M791.32,104.55h27.93a40.79,40.79,0,0,1,19.21,4.36,31.86,31.86,0,0,1,12.93,12.15,36.61,36.61,0,0,1,0,35.57,31.73,31.73,0,0,1-12.93,12.15,40.79,40.79,0,0,1-19.21,4.37H791.32Zm27.54,62.32a33.33,33.33,0,0,0,15.78-3.57,26,26,0,0,0,10.48-9.9,30.26,30.26,0,0,0,0-29.11,25.91,25.91,0,0,0-10.48-9.89,33.22,33.22,0,0,0-15.78-3.58H798.58v56.05Z"/><path class="cls-1" d="M22.76,169.37a4.46,4.46,0,0,0,1.37-2.13A3.72,3.72,0,0,0,22.76,169.37Z"/><path class="cls-1" d="M24.14,167.22h0v0Z"/><path class="cls-1" d="M71.64,1.77c-.11.2-.23.44-.35.67A3.3,3.3,0,0,0,71.64,1.77Z"/><path class="cls-1" d="M103.42,78.12c-.44-1.32.36-.35.12-1.66.55-.12.85,1.08,1.06,2.13-.07-1,.19-2-.48-2.28.1-.92.7,0,.78-1.07-.28-.76-1-1.72-.77-2.64h.1c.26-2.21-1.33-3.21-1.08-5.23l.22.19c.21-.72-.45-2-.31-3.34,0,.37-.4.73-.59,0,.11-1.48-.4-2.42-.13-3.52l-.72-.95c-.37-2.51-1.6-8.69-3-14.85s-2.85-12.31-3.43-14.81l.13.18c-.92-3.79-5.8-13-7.21-18.82C87.2,11,73,2.88,71.82,2.52a5.72,5.72,0,0,1,.82-1.16c-.36,0-1.07,1-1.21,1.64l.58.28c-.49,1.32-.55.18-1.19,1.43-.56-.09,0-1.25.47-2.27-.56.88-1.44,1.67-1.08,2.2-.69.78-.58-.28-1.37.67a5.5,5.5,0,0,1-1,2.62l-.09,0c-1.67,1.88-1,3.32-2.48,5l-.07-.25c-.66.57-1,2-1.92,3.07.29-.31.83-.49.5.23-1.07,1.27-1.24,2.29-2.19,3.17v1.1c-1.31,2.36-4.29,8.28-7.13,14.24S48.81,46.4,47.68,48.82v-.21l-6.86,15c-1.25,2.84-2.48,5.7-3.58,8.33s-2,5.06-2.67,7a19.51,19.51,0,0,0-2.34,3.93c.52-.64.79-.32.53.21-1.68,3.76.24.33-1.17,4.2-1.49,4.47-8.91,21.24-10.85,25.09-.08,2.26-1.64,4.79-1.94,7l-.11-.24c-.6,2.26-5.95,14.75-6.57,17.4l.24-.32c-.31,2.35-1,1.89-1.94,3.63,1-.08.77,1.94.58,2.69l-.18-.06c-.24,1.15-.38,3.8-.86,5.67L9.51,148c0,1.62-1.17,4.48-1.49,5.6-1.06,2.49-3.12,6.28-3.57,9.77l-2.06,2,0,.34a64.87,64.87,0,0,0,8.31,2.52c4.46,1,9.54,1.53,12-.41l.45.14.22-.88c.57-1,.16-1.58.62-1.44L23.51,167c.47-1,.49-.26.63.19a5.52,5.52,0,0,1,.64-1.18c-.12-.24-.25.12-.41.27a3.76,3.76,0,0,1,.26-2.11c.38-1.07.79.06,1.24-1.19,1.22-3.29,2.56-6.5,3.81-9.74s2.49-6.48,3.6-9.82c.25-.12.18.06.2.27.51-2,1.18-3.82,1.64-5.68a2.12,2.12,0,0,1,1-.66c-.26.11.55-2.42,1.45-5,.46-1.29.92-2.59,1.28-3.58s.65-1.66.69-1.7l-.8-.28c.73-2,1.19-.39,1.67-2.25-.94-.94,1.27-3,.87-3.75.09,0,.47-.85.82-.72-.55-.4.2-.94.24-1.54-.1-.23-.25.11-.5.23l.27-1.33c.41-.46.84-.51.7,0,.79-1.65,2.88-6.48,5-11.32s4.25-9.74,4.88-11.56c-.69.35-.83,1.53-1.78,1.79,0-1,.75-1.37.47-1.88,1.31-.12,1.17-2,2.64-2.49l-.53-.42.59-.38c1.12-4.32.06-1,1.84-4.69.85-2.15.4-3.37,1.26-4.48-.09.18-.69.56-.61,0,.61,0,.24-1.57.94-1.71.17-.55,1-2.29,0-1.88.51-.21,1.38-1.73,1.29-.73a3.86,3.86,0,0,0,.62-1.42l-.53.63c.71-1.81,1.76-2.64,1.59-4l-.61.59c.44-1.08.79-2,1.75-2.22l-.27,1.15a16.93,16.93,0,0,0,1.5-4.41l-.26.52c.11-2,4.11-12,4-13.92l-1,.64.24-1.6c-.1.18,1.56,1.19,1.3,1.29,1-2.22,5.1-10.9,8.17-16.91,1.4,6.3,3.21,14.86,3.22,17-.13,1.26-.95.33-1,.32.5,1.47.77.58,1,1.85,0,.36-.51,0-.63-.2.17.55,0,1.09.35,1.1.1-.72.93-.51,1.37-.86l.23,1.64-.5,0c0,.37,1.51.78,1.51,2.42.23,2.74,3.94,3.49,4.27,6.23-.3,0-.56-.56-.83-1.12a2.78,2.78,0,0,1,.06,1.28c.41-.72.53,1.11.66.57,1.52,1.88,3,1.5,4.1,3.19,1.09,0,13.74,7.34,15,7.24a4.21,4.21,0,0,1,0,1.3c.28-.17.26-1.29,0-1.85Z"/><path class="cls-1" d="M160,5.46a4.46,4.46,0,0,0-1.37,2.13A3.75,3.75,0,0,0,160,5.46Z"/><path class="cls-1" d="M158.64,7.61h0v0Z"/><path class="cls-1" d="M111.14,173.06c.11-.2.22-.44.35-.68A2.93,2.93,0,0,0,111.14,173.06Z"/><path class="cls-1" d="M79.36,96.71c.44,1.31-.36.35-.12,1.65-.55.13-.85-1.07-1.06-2.12.07,1-.19,2,.48,2.28-.1.92-.7,0-.78,1.07.28.76,1,1.71.77,2.63h-.1c-.26,2.21,1.33,3.21,1.08,5.23l-.22-.2c-.21.73.45,2,.3,3.34.06-.37.41-.72.6,0-.12,1.47.4,2.42.13,3.52l.71,1c.38,2.51,1.61,8.69,3,14.85s2.85,12.31,3.43,14.81l-.13-.19c.92,3.8,5.8,13,7.21,18.83.93.42,15.13,8.55,16.31,8.91a5.57,5.57,0,0,1-.82,1.17c.36-.05,1.07-1.05,1.21-1.64l-.58-.28c.49-1.33.54-.19,1.19-1.43.56.09,0,1.25-.47,2.26.56-.88,1.44-1.66,1.08-2.19.69-.78.58.28,1.37-.68a5.47,5.47,0,0,1,1-2.61l.09,0c1.67-1.87,1-3.32,2.48-5l.07.25c.66-.57,1-2,1.92-3.07-.29.31-.83.49-.5-.24,1.07-1.27,1.24-2.29,2.19-3.17V154.6c1.31-2.36,4.29-8.28,7.13-14.24S134,128.43,135.1,126v.21l6.86-15c1.25-2.85,2.48-5.7,3.58-8.34s2-5.05,2.67-7a19.51,19.51,0,0,0,2.34-3.93c-.52.63-.79.32-.53-.21,1.68-3.76-.25-.34,1.17-4.2,1.49-4.48,8.91-21.24,10.85-25.09.08-2.26,1.64-4.79,1.94-6.95l.11.24c.6-2.27,5.94-14.76,6.57-17.41l-.24.33c.31-2.35,1.05-1.89,1.94-3.63-.95.08-.77-2-.58-2.7l.18.06c.24-1.14.38-3.79.86-5.66l.46.15c0-1.62,1.17-4.48,1.49-5.6,1.06-2.49,3.12-6.28,3.57-9.78l2.06-2,0-.34a64.87,64.87,0,0,0-8.31-2.52c-4.46-1-9.54-1.53-12,.41l-.45-.15-.22.89c-.57,1-.17,1.58-.62,1.43l.51-1.42c-.47,1-.49.25-.63-.19A5.52,5.52,0,0,1,158,8.8c.12.23.25-.12.4-.27a3.62,3.62,0,0,1-.25,2.1c-.38,1.07-.79-.05-1.24,1.2-1.22,3.29-2.56,6.5-3.81,9.74s-2.49,6.48-3.6,9.82c-.25.11-.18-.07-.2-.27-.51,2-1.18,3.81-1.64,5.67a2.13,2.13,0,0,1-1,.67c.25-.11-.55,2.42-1.45,5-.46,1.28-.92,2.59-1.28,3.58s-.65,1.66-.69,1.7l.8.28c-.73,2-1.19.39-1.67,2.25.94.94-1.27,3-.87,3.74-.09,0-.47.85-.82.73.55.39-.2.94-.25,1.53.11.24.26-.11.51-.22l-.27,1.33c-.41.46-.84.51-.7,0-.79,1.65-2.88,6.47-5,11.32s-4.25,9.74-4.88,11.56c.69-.36.83-1.54,1.78-1.79,0,1-.75,1.36-.47,1.88-1.31.12-1.17,2-2.64,2.49l.53.41-.59.39c-1.12,4.32-.06,1-1.84,4.68-.85,2.16-.4,3.37-1.26,4.49.09-.18.69-.56.61,0-.61,0-.24,1.56-.94,1.7-.17.56-1,2.3,0,1.88-.51.21-1.38,1.74-1.29.73a3.9,3.9,0,0,0-.62,1.43l.53-.63c-.71,1.8-1.76,2.63-1.59,4l.61-.58c-.44,1.07-.79,2-1.75,2.21l.27-1.14a16.93,16.93,0,0,0-1.5,4.41l.26-.52c-.11,2.05-4.11,12-4,13.92l1-.64-.23,1.6c.1-.18-1.56-1.2-1.3-1.29-1,2.21-5.1,10.9-8.17,16.91-1.4-6.3-3.21-14.86-3.22-17,.13-1.27,1-.33,1.05-.33-.5-1.47-.77-.57-1-1.85,0-.36.5,0,.63.21-.17-.55,0-1.09-.35-1.1-.1.72-.93.51-1.38.86l-.22-1.64h.5c0-.36-1.51-.77-1.51-2.41-.23-2.75-3.94-3.49-4.27-6.24.3,0,.56.57.83,1.13a2.78,2.78,0,0,1-.06-1.28c-.41.71-.53-1.11-.66-.57-1.52-1.89-3-1.5-4.1-3.19-1.1,0-13.74-7.35-15-7.24a4.21,4.21,0,0,1,0-1.3c-.28.17-.26,1.28,0,1.85Z"/></svg>