<svg id="Layer_1" data-name="Layer 1" xmlns="http://www.w3.org/2000/svg" viewBox="0 0 200 200"><defs><style>.cls-1{fill:#0f560f;}</style></defs><title>Icon Assets</title><path class="cls-1" d="M24.77,190.5a5,5,0,0,0,1.5-2.34A4.08,4.08,0,0,0,24.77,190.5Z"/><path class="cls-1" d="M26.29,188.14v0Z"/><path class="cls-1" d="M78.44,6.45l-.38.74A3.06,3.06,0,0,0,78.44,6.45Z"/><path class="cls-1" d="M113.34,90.3c-.48-1.45.4-.39.14-1.82.6-.14.93,1.17,1.16,2.33-.09-1,.21-2.14-.53-2.51.11-1,.77,0,.86-1.17-.31-.83-1.07-1.88-.85-2.89h.11c.28-2.42-1.46-3.52-1.19-5.74l.24.21c.24-.8-.49-2.25-.33-3.66-.06.4-.45.79-.66,0,.13-1.62-.43-2.66-.14-3.87l-.78-1c-.41-2.76-1.76-9.54-3.28-16.31S105,40.28,104.33,37.54l.14.2c-1-4.17-6.37-14.27-7.92-20.67-1-.46-16.62-9.4-17.91-9.79A5.91,5.91,0,0,1,79.54,6c-.39.06-1.17,1.15-1.33,1.8l.63.31c-.53,1.45-.59.2-1.3,1.57-.61-.1,0-1.38.52-2.49-.62,1-1.58,1.83-1.18,2.41-.76.86-.64-.3-1.52.74-.27.85-.3,2.05-1.15,2.87l-.09,0c-1.84,2.05-1.05,3.64-2.73,5.51l-.08-.27c-.72.63-1,2.17-2.1,3.37.31-.34.9-.54.55.26-1.18,1.39-1.37,2.51-2.41,3.48v1.2c-1.44,2.6-4.71,9.1-7.83,15.64s-6.13,13.1-7.38,15.76v-.23C50.28,62,47.46,68.14,44.61,74.37c-1.37,3.12-2.73,6.26-3.94,9.15s-2.18,5.55-2.92,7.7c-1.15,1.17-1.81,3-2.57,4.31.57-.7.86-.35.57.23-1.84,4.13.28.37-1.27,4.61-1.65,4.92-9.79,23.33-11.92,27.56-.09,2.47-1.8,5.25-2.14,7.63l-.11-.27c-.66,2.49-6.53,16.21-7.21,19.12l.25-.36c-.34,2.58-1.15,2.08-2.12,4,1-.09.84,2.13.63,3l-.2-.07c-.26,1.25-.41,4.17-.94,6.22l-.5-.17c0,1.79-1.29,4.93-1.64,6.15-1.17,2.74-3.43,6.9-3.92,10.74L2.4,186.05l0,.38a71.69,71.69,0,0,0,9.12,2.76c4.91,1.12,10.48,1.68,13.18-.45l.5.16.24-1c.62-1.11.18-1.74.68-1.58l-.57,1.57c.52-1.13.54-.28.7.2a6.31,6.31,0,0,1,.7-1.29c-.13-.26-.27.14-.44.3a4,4,0,0,1,.27-2.31c.43-1.18.88.05,1.37-1.32,1.34-3.61,2.81-7.14,4.18-10.69s2.74-7.12,4-10.78c.27-.13.2.06.22.29.55-2.24,1.29-4.19,1.79-6.23a2.43,2.43,0,0,1,1.09-.74c-.28.13.61-2.65,1.59-5.49l1.41-3.94c.42-1.08.72-1.82.76-1.86l-.88-.31c.81-2.17,1.31-.43,1.84-2.47-1-1,1.39-3.29,1-4.11.1,0,.51-.94.9-.8-.6-.43.22-1,.27-1.68-.11-.27-.28.12-.56.24l.3-1.46c.45-.5.93-.55.77.06.87-1.81,3.17-7.11,5.53-12.44S57,110.4,57.66,108.4c-.76.39-.92,1.69-2,2,0-1.15.82-1.5.52-2.07,1.43-.13,1.28-2.22,2.89-2.73l-.58-.46.65-.42c1.23-4.74.07-1.13,2-5.14.93-2.37.44-3.71,1.38-4.93-.09.19-.76.61-.67,0,.67,0,.27-1.72,1-1.88.19-.61,1.12-2.52,0-2.06.57-.23,1.52-1.91,1.43-.8A4.31,4.31,0,0,0,65,88.29l-.57.68c.77-2,1.92-2.89,1.73-4.34l-.67.64c.49-1.18.87-2.17,1.92-2.43l-.29,1.26a18.63,18.63,0,0,0,1.65-4.84l-.29.57c.12-2.25,4.51-13.15,4.43-15.29l-1.07.71.25-1.76c-.1.19,1.72,1.31,1.43,1.42,1.11-2.44,5.6-12,9-18.57C84.06,53.25,86,62.66,86.05,65c-.14,1.39-1,.36-1.15.36.54,1.61.85.63,1,2-.06.39-.55,0-.69-.22.19.6,0,1.19.38,1.2.11-.79,1-.56,1.51-.94l.25,1.8-.55,0c0,.4,1.66.86,1.66,2.66.26,3,4.33,3.83,4.69,6.84-.33,0-.62-.62-.91-1.24a3.07,3.07,0,0,1,.06,1.41c.45-.78.58,1.22.73.63,1.67,2.07,3.32,1.65,4.5,3.5,1.2.05,15.09,8.07,16.5,8a4.72,4.72,0,0,1,0,1.43c.3-.19.28-1.41,0-2Z"/><path class="cls-1" d="M175.49,10.5a5,5,0,0,0-1.5,2.34A4.13,4.13,0,0,0,175.49,10.5Z"/><path class="cls-1" d="M174,12.86v0Z"/><path class="cls-1" d="M121.82,194.55c.11-.22.24-.48.38-.74A3.06,3.06,0,0,0,121.82,194.55Z"/><path class="cls-1" d="M86.92,110.7c.48,1.45-.4.39-.14,1.82-.6.14-.93-1.17-1.16-2.33.08,1-.21,2.14.53,2.51-.11,1-.77,0-.86,1.17.31.83,1.07,1.88.85,2.89H86c-.28,2.42,1.45,3.52,1.19,5.74l-.25-.21c-.23.8.49,2.25.34,3.66.06-.4.45-.79.66,0-.13,1.62.43,2.66.14,3.87l.78,1c.41,2.76,1.76,9.54,3.27,16.31s3.14,13.52,3.77,16.26l-.14-.2c1,4.17,6.37,14.27,7.92,20.67,1,.46,16.61,9.4,17.91,9.79a5.91,5.91,0,0,1-.9,1.28c.39-.06,1.17-1.15,1.33-1.8l-.64-.31c.53-1.45.6-.2,1.31-1.57.61.1,0,1.38-.52,2.49.62-1,1.58-1.83,1.18-2.41.76-.86.64.3,1.51-.74.28-.85.31-2,1.16-2.87l.09,0c1.83-2.05,1-3.64,2.73-5.51l.07.27c.73-.63,1.05-2.17,2.11-3.37-.31.34-.9.54-.55-.26,1.18-1.39,1.37-2.51,2.41-3.48v-1.2c1.44-2.6,4.71-9.1,7.83-15.64s6.13-13.1,7.38-15.76v.23c1.85-4.06,4.68-10.25,7.53-16.48,1.37-3.12,2.73-6.26,3.93-9.15s2.19-5.55,2.93-7.7c1.15-1.17,1.81-3,2.57-4.31-.57.7-.86.35-.57-.23,1.84-4.13-.28-.37,1.27-4.61,1.65-4.92,9.79-23.33,11.92-27.56.09-2.47,1.8-5.25,2.14-7.63l.11.27c.66-2.49,6.53-16.21,7.21-19.12l-.25.36c.34-2.58,1.15-2.08,2.12-4-1,.09-.84-2.13-.63-3l.2.07c.26-1.25.41-4.17.94-6.22l.5.17c0-1.79,1.29-4.93,1.64-6.15,1.17-2.74,3.43-6.9,3.92-10.74L197.86,15l0-.38a71.54,71.54,0,0,0-9.13-2.76c-4.9-1.12-10.47-1.68-13.17.45l-.5-.16-.24,1c-.62,1.11-.18,1.74-.68,1.58l.56-1.57c-.51,1.13-.54.28-.69-.2a6.31,6.31,0,0,1-.7,1.29c.13.26.27-.14.44-.3a3.93,3.93,0,0,1-.28,2.31c-.42,1.18-.87-.05-1.36,1.32-1.34,3.61-2.81,7.14-4.18,10.69s-2.74,7.12-4,10.78c-.28.13-.2-.06-.22-.29-.55,2.24-1.29,4.19-1.79,6.23a2.49,2.49,0,0,1-1.09.74c.27-.13-.61,2.65-1.59,5.49l-1.41,3.94c-.42,1.08-.72,1.82-.76,1.86l.88.31c-.81,2.17-1.31.43-1.84,2.47,1,1-1.39,3.29-1,4.11-.1,0-.51.94-.9.8.6.43-.22,1-.27,1.68.11.27.28-.12.56-.24l-.3,1.46c-.45.5-.93.55-.77-.06-.87,1.81-3.17,7.11-5.53,12.44S143.29,90.6,142.6,92.6c.76-.39.91-1.69,2-2,0,1.15-.82,1.5-.52,2.07-1.43.13-1.28,2.22-2.89,2.73l.58.46-.66.42c-1.23,4.74-.06,1.13-2,5.14-.93,2.37-.44,3.71-1.38,4.93.09-.19.76-.61.67,0-.67,0-.27,1.72-1,1.88-.19.61-1.13,2.52,0,2.06-.57.23-1.52,1.91-1.43.8a4.54,4.54,0,0,0-.68,1.56l.58-.68c-.77,2-1.92,2.89-1.74,4.34l.68-.64c-.49,1.18-.87,2.17-1.93,2.43l.3-1.26a18.63,18.63,0,0,0-1.65,4.84l.29-.57c-.12,2.25-4.51,13.15-4.44,15.29l1.08-.71-.25,1.76c.1-.19-1.72-1.31-1.43-1.42-1.12,2.44-5.6,12-9,18.57-1.55-6.91-3.53-16.32-3.54-18.64.14-1.39,1-.36,1.15-.36-.54-1.61-.85-.63-1-2,.06-.39.55,0,.69.22-.19-.6-.06-1.19-.38-1.2-.12.79-1,.56-1.52.94l-.24-1.8.55,0c0-.4-1.66-.86-1.66-2.66-.26-3-4.33-3.83-4.69-6.84.33,0,.62.62.91,1.24a3.07,3.07,0,0,1-.06-1.41c-.45.78-.58-1.22-.73-.63-1.67-2.07-3.32-1.65-4.5-3.5-1.2-.05-15.09-8.07-16.5-8a4.72,4.72,0,0,1,0-1.43c-.31.19-.29,1.41,0,2Z"/></svg>