<svg viewBox="60 60 50 60" width="858" height="177" xmlns="http://www.w3.org/2000/svg" data-name="Layer 1"

>
 <title>Icon Assets</title>

 <g>
  <title>Layer 1</title>
  <path id="svg_1" d="m295.61,7.47l0,78l-11.92,0l-43,-52.8l0,52.8l-14.37,0l0,-78l11.92,0l43,52.8l0,-52.8l14.37,0z"/>
  <path id="svg_2" d="m324.9,77.48q-9,-9.08 -9,-26l0,-44l14.48,0l0,43.44q0,23 19.83,22.94t19.72,-22.94l0,-43.45l14.26,0l0,44q0,16.94 -9,26t-25.12,9.08q-16.14,0.01 -25.17,-9.07z"/>
  <path id="svg_3" d="m418.81,19.73l-25.81,0l0,-12.26l66.16,0l0,12.26l-25.87,0l0,65.72l-14.48,0l0,-65.72z"/>
  <path id="svg_4" d="m521.07,85.45l-15.93,-22.84a28.18,28.18 0 0 1 -3,0.11l-17.6,0l0,22.73l-14.49,0l0,-78l32.08,0a43.34,43.34 0 0 1 17.66,3.34a25.79,25.79 0 0 1 11.53,9.58a26.84,26.84 0 0 1 4,14.82a26.4,26.4 0 0 1 -4.32,15.17a25.53,25.53 0 0 1 -12.31,9.47l17.93,25.62l-15.55,0zm-5.24,-61.71q-4.91,-4 -14.37,-4l-16.93,0l0,31.06l16.93,0q9.46,0 14.37,-4.06t4.9,-11.53q0,-7.47 -4.9,-11.47z"/>
  <path id="svg_5" d="m551.48,7.47l14.52,0l0,78l-14.52,0l0,-78z"/>
  <path id="svg_6" d="m602.83,19.73l-25.83,0l0,-12.26l66.16,0l0,12.26l-25.85,0l0,65.72l-14.48,0l0,-65.72z"/>
  <path id="svg_7" d="m654.07,7.47l14.48,0l0,78l-14.48,0l0,-78z"/>
  <path id="svg_8" d="m704.53,81.38a38.3,38.3 0 0 1 -15,-14.37a39.43,39.43 0 0 1 -5.53,-20.55a39.46,39.46 0 0 1 5.46,-20.55a38.3,38.3 0 0 1 15,-14.37a47.21,47.21 0 0 1 43,0a38.44,38.44 0 0 1 15,14.31a39.39,39.39 0 0 1 5.54,20.61a39.39,39.39 0 0 1 -5.46,20.61a38.44,38.44 0 0 1 -15,14.31a47.21,47.21 0 0 1 -43,0l-0.01,0zm35.54,-11a25.36,25.36 0 0 0 9.8,-9.8a28,28 0 0 0 3.56,-14.09a28,28 0 0 0 -3.56,-14.09a25.43,25.43 0 0 0 -9.8,-9.8a29.84,29.84 0 0 0 -28.08,0a25.43,25.43 0 0 0 -9.8,9.8a28,28 0 0 0 -3.56,14.09a28,28 0 0 0 3.56,14.09a25.36,25.36 0 0 0 9.8,9.8a29.84,29.84 0 0 0 28.08,0z"/>
  <path id="svg_9" d="m852.69,7.47l0,78l-11.92,0l-43,-52.8l0,52.8l-14.37,0l0,-78l11.92,0l43,52.8l0,-52.8l14.37,0z"/>
  <path id="svg_10" d="m225.4,104.55l7.25,0l0,68.6l-7.25,0l0,-68.6z"/>
  <path id="svg_11" d="m312.32,104.55l0,68.6l-6,0l-44.09,-55.67l0,55.67l-7.23,0l0,-68.6l6,0l44.2,55.66l0,-55.66l7.12,0z"/>
  <path id="svg_12" d="m348,110.82l-24.1,0l0,-6.27l55.46,0l0,6.27l-24.12,0l0,62.33l-7.24,0l0,-62.33z"/>
  <path id="svg_13" d="m439.42,166.87l0,6.28l-48.51,0l0,-68.6l47,0l0,6.27l-39.74,0l0,24.4l35.47,0l0,6.17l-35.47,0l0,25.48l41.25,0z"/>
  <path id="svg_14" d="m504.39,138.85l7,0l0,26.15a33.43,33.43 0 0 1 -11.39,6.48a42.27,42.27 0 0 1 -13.81,2.25a37.91,37.91 0 0 1 -18.53,-4.51a33.25,33.25 0 0 1 -12.93,-12.49a36.31,36.31 0 0 1 0,-35.77a33.32,33.32 0 0 1 12.93,-12.49a38.09,38.09 0 0 1 18.6,-4.47a40.12,40.12 0 0 1 14.41,2.5a28.46,28.46 0 0 1 11.07,7.4l-4.5,4.6q-8.14,-8 -20.68,-8a30.78,30.78 0 0 0 -15,3.67a27,27 0 0 0 -10.56,10.12a28.24,28.24 0 0 0 -3.82,14.56a28,28 0 0 0 3.82,14.5a27.53,27.53 0 0 0 10.49,10.19a30.22,30.22 0 0 0 15,3.73q10.59,0 17.93,-5.3l-0.03,-23.12z"/>
  <path id="svg_15" d="m578.67,173.15l-15.67,-22.05a51.08,51.08 0 0 1 -5.48,0.29l-18.44,0l0,21.76l-7.25,0l0,-68.6l25.68,0q13.13,0 20.58,6.27t7.44,17.25a22.31,22.31 0 0 1 -4.06,13.57a22.64,22.64 0 0 1 -11.62,8l16.76,23.52l-7.94,-0.01zm-5.78,-32.44q5.39,-4.52 5.39,-12.64q0,-8.32 -5.39,-12.79t-15.58,-4.46l-18.23,0l0,34.4l18.23,0q10.19,0 15.58,-4.51z"/>
  <path id="svg_16" d="m645.7,154.82l-38.22,0l-8.23,18.33l-7.54,0l31.36,-68.6l7.15,0l31.36,68.6l-7.65,0l-8.23,-18.33zm-2.64,-5.88l-16.47,-36.85l-16.46,36.85l32.93,0z"/>
  <path id="svg_17" d="m682.84,110.82l-24.1,0l0,-6.27l55.46,0l0,6.27l-24.1,0l0,62.33l-7.26,0l0,-62.33z"/>
  <path id="svg_18" d="m774.27,166.87l0,6.28l-48.5,0l0,-68.6l47,0l0,6.27l-39.77,0l0,24.4l35.47,0l0,6.17l-35.47,0l0,25.48l41.27,0z"/>
  <path id="svg_19" d="m791.32,104.55l27.93,0a40.79,40.79 0 0 1 19.21,4.36a31.86,31.86 0 0 1 12.93,12.15a36.61,36.61 0 0 1 0,35.57a31.73,31.73 0 0 1 -12.93,12.15a40.79,40.79 0 0 1 -19.21,4.37l-27.93,0l0,-68.6zm27.54,62.32a33.33,33.33 0 0 0 15.78,-3.57a26,26 0 0 0 10.48,-9.9a30.26,30.26 0 0 0 0,-29.11a25.91,25.91 0 0 0 -10.48,-9.89a33.22,33.22 0 0 0 -15.78,-3.58l-20.28,0l0,56.05l20.28,0z"/>
  <path id="svg_20" d="m22.76,169.37a4.46,4.46 0 0 0 1.37,-2.13a3.72,3.72 0 0 0 -1.37,2.13z"/>
  <path id="svg_21" d="m24.14,167.22l0,0l0,0z"/>
  <path id="svg_22" d="m71.64,1.77c-0.11,0.2 -0.23,0.44 -0.35,0.67a3.3,3.3 0 0 0 0.35,-0.67z"/>
  <path id="svg_23" d="m103.42,78.12c-0.44,-1.32 0.36,-0.35 0.12,-1.66c0.55,-0.12 0.85,1.08 1.06,2.13c-0.07,-1 0.19,-2 -0.48,-2.28c0.1,-0.92 0.7,0 0.78,-1.07c-0.28,-0.76 -1,-1.72 -0.77,-2.64l0.1,0c0.26,-2.21 -1.33,-3.21 -1.08,-5.23l0.22,0.19c0.21,-0.72 -0.45,-2 -0.31,-3.34c0,0.37 -0.4,0.73 -0.59,0c0.11,-1.48 -0.4,-2.42 -0.13,-3.52l-0.72,-0.95c-0.37,-2.51 -1.6,-8.69 -3,-14.85s-2.85,-12.31 -3.43,-14.81l0.13,0.18c-0.92,-3.79 -5.8,-13 -7.21,-18.82c-0.91,-0.45 -15.11,-8.57 -16.29,-8.93a5.72,5.72 0 0 1 0.82,-1.16c-0.36,0 -1.07,1 -1.21,1.64l0.58,0.28c-0.49,1.32 -0.55,0.18 -1.19,1.43c-0.56,-0.09 0,-1.25 0.47,-2.27c-0.56,0.88 -1.44,1.67 -1.08,2.2c-0.69,0.78 -0.58,-0.28 -1.37,0.67a5.5,5.5 0 0 1 -1,2.62l-0.09,0c-1.67,1.88 -1,3.32 -2.48,5l-0.07,-0.25c-0.66,0.57 -1,2 -1.92,3.07c0.29,-0.31 0.83,-0.49 0.5,0.23c-1.07,1.27 -1.24,2.29 -2.19,3.17l0,1.1c-1.31,2.36 -4.29,8.28 -7.13,14.24s-5.65,11.91 -6.78,14.33l0,-0.21l-6.86,15c-1.25,2.84 -2.48,5.7 -3.58,8.33s-2,5.06 -2.67,7a19.51,19.51 0 0 0 -2.34,3.93c0.52,-0.64 0.79,-0.32 0.53,0.21c-1.68,3.76 0.24,0.33 -1.17,4.2c-1.49,4.47 -8.91,21.24 -10.85,25.09c-0.08,2.26 -1.64,4.79 -1.94,7l-0.11,-0.24c-0.6,2.26 -5.95,14.75 -6.57,17.4l0.24,-0.32c-0.31,2.35 -1,1.89 -1.94,3.63c1,-0.08 0.77,1.94 0.58,2.69l-0.18,-0.06c-0.24,1.15 -0.38,3.8 -0.86,5.67l-0.45,-0.14c0,1.62 -1.17,4.48 -1.49,5.6c-1.06,2.49 -3.12,6.28 -3.57,9.77l-2.06,2l0,0.34a64.87,64.87 0 0 0 8.31,2.52c4.46,1 9.54,1.53 12,-0.41l0.45,0.14l0.22,-0.88c0.57,-1 0.16,-1.58 0.62,-1.44l-0.48,1.36c0.47,-1 0.49,-0.26 0.63,0.19a5.52,5.52 0 0 1 0.64,-1.18c-0.12,-0.24 -0.25,0.12 -0.41,0.27a3.76,3.76 0 0 1 0.26,-2.11c0.38,-1.07 0.79,0.06 1.24,-1.19c1.22,-3.29 2.56,-6.5 3.81,-9.74s2.49,-6.48 3.6,-9.82c0.25,-0.12 0.18,0.06 0.2,0.27c0.51,-2 1.18,-3.82 1.64,-5.68a2.12,2.12 0 0 1 1,-0.66c-0.26,0.11 0.55,-2.42 1.45,-5c0.46,-1.29 0.92,-2.59 1.28,-3.58s0.65,-1.66 0.69,-1.7l-0.8,-0.28c0.73,-2 1.19,-0.39 1.67,-2.25c-0.94,-0.94 1.27,-3 0.87,-3.75c0.09,0 0.47,-0.85 0.82,-0.72c-0.55,-0.4 0.2,-0.94 0.24,-1.54c-0.1,-0.23 -0.25,0.11 -0.5,0.23l0.27,-1.33c0.41,-0.46 0.84,-0.51 0.7,0c0.79,-1.65 2.88,-6.48 5,-11.32s4.25,-9.74 4.88,-11.56c-0.69,0.35 -0.83,1.53 -1.78,1.79c0,-1 0.75,-1.37 0.47,-1.88c1.31,-0.12 1.17,-2 2.64,-2.49l-0.53,-0.42l0.59,-0.38c1.12,-4.32 0.06,-1 1.84,-4.69c0.85,-2.15 0.4,-3.37 1.26,-4.48c-0.09,0.18 -0.69,0.56 -0.61,0c0.61,0 0.24,-1.57 0.94,-1.71c0.17,-0.55 1,-2.29 0,-1.88c0.51,-0.21 1.38,-1.73 1.29,-0.73a3.86,3.86 0 0 0 0.62,-1.42l-0.53,0.63c0.71,-1.81 1.76,-2.64 1.59,-4l-0.61,0.59c0.44,-1.08 0.79,-2 1.75,-2.22l-0.27,1.15a16.93,16.93 0 0 0 1.5,-4.41l-0.26,0.52c0.11,-2 4.11,-12 4,-13.92l-1,0.64l0.24,-1.6c-0.1,0.18 1.56,1.19 1.3,1.29c1,-2.22 5.1,-10.9 8.17,-16.91c1.4,6.3 3.21,14.86 3.22,17c-0.13,1.26 -0.95,0.33 -1,0.32c0.5,1.47 0.77,0.58 1,1.85c0,0.36 -0.51,0 -0.63,-0.2c0.17,0.55 0,1.09 0.35,1.1c0.1,-0.72 0.93,-0.51 1.37,-0.86l0.23,1.64l-0.5,0c0,0.37 1.51,0.78 1.51,2.42c0.23,2.74 3.94,3.49 4.27,6.23c-0.3,0 -0.56,-0.56 -0.83,-1.12a2.78,2.78 0 0 1 0.06,1.28c0.41,-0.72 0.53,1.11 0.66,0.57c1.52,1.88 3,1.5 4.1,3.19c1.09,0 13.74,7.34 15,7.24a4.21,4.21 0 0 1 0,1.3c0.28,-0.17 0.26,-1.29 0,-1.85l-0.69,-0.01z"/>
  <path id="svg_24" d="m160,5.46a4.46,4.46 0 0 0 -1.37,2.13a3.75,3.75 0 0 0 1.37,-2.13z"/>
  <path id="svg_25" d="m158.64,7.61l0,0l0,0z"/>
  <path id="svg_26" d="m111.14,173.06c0.11,-0.2 0.22,-0.44 0.35,-0.68a2.93,2.93 0 0 0 -0.35,0.68z"/>
  <path id="svg_27" d="m79.36,96.71c0.44,1.31 -0.36,0.35 -0.12,1.65c-0.55,0.13 -0.85,-1.07 -1.06,-2.12c0.07,1 -0.19,2 0.48,2.28c-0.1,0.92 -0.7,0 -0.78,1.07c0.28,0.76 1,1.71 0.77,2.63l-0.1,0c-0.26,2.21 1.33,3.21 1.08,5.23l-0.22,-0.2c-0.21,0.73 0.45,2 0.3,3.34c0.06,-0.37 0.41,-0.72 0.6,0c-0.12,1.47 0.4,2.42 0.13,3.52l0.71,1c0.38,2.51 1.61,8.69 3,14.85s2.85,12.31 3.43,14.81l-0.13,-0.19c0.92,3.8 5.8,13 7.21,18.83c0.93,0.42 15.13,8.55 16.31,8.91a5.57,5.57 0 0 1 -0.82,1.17c0.36,-0.05 1.07,-1.05 1.21,-1.64l-0.58,-0.28c0.49,-1.33 0.54,-0.19 1.19,-1.43c0.56,0.09 0,1.25 -0.47,2.26c0.56,-0.88 1.44,-1.66 1.08,-2.19c0.69,-0.78 0.58,0.28 1.37,-0.68a5.47,5.47 0 0 1 1,-2.61l0.09,0c1.67,-1.87 1,-3.32 2.48,-5l0.07,0.25c0.66,-0.57 1,-2 1.92,-3.07c-0.29,0.31 -0.83,0.49 -0.5,-0.24c1.07,-1.27 1.24,-2.29 2.19,-3.17l0,-1.09c1.31,-2.36 4.29,-8.28 7.13,-14.24s5.67,-11.93 6.77,-14.36l0,0.21l6.86,-15c1.25,-2.85 2.48,-5.7 3.58,-8.34s2,-5.05 2.67,-7a19.51,19.51 0 0 0 2.34,-3.93c-0.52,0.63 -0.79,0.32 -0.53,-0.21c1.68,-3.76 -0.25,-0.34 1.17,-4.2c1.49,-4.48 8.91,-21.24 10.85,-25.09c0.08,-2.26 1.64,-4.79 1.94,-6.95l0.11,0.24c0.6,-2.27 5.94,-14.76 6.57,-17.41l-0.24,0.33c0.31,-2.35 1.05,-1.89 1.94,-3.63c-0.95,0.08 -0.77,-2 -0.58,-2.7l0.18,0.06c0.24,-1.14 0.38,-3.79 0.86,-5.66l0.46,0.15c0,-1.62 1.17,-4.48 1.49,-5.6c1.06,-2.49 3.12,-6.28 3.57,-9.78l2.06,-2l0,-0.34a64.87,64.87 0 0 0 -8.31,-2.52c-4.46,-1 -9.54,-1.53 -12,0.41l-0.45,-0.15l-0.22,0.89c-0.57,1 -0.17,1.58 -0.62,1.43l0.51,-1.42c-0.47,1 -0.49,0.25 -0.63,-0.19a5.52,5.52 0 0 1 -0.68,1.2c0.12,0.23 0.25,-0.12 0.4,-0.27a3.62,3.62 0 0 1 -0.25,2.1c-0.38,1.07 -0.79,-0.05 -1.24,1.2c-1.22,3.29 -2.56,6.5 -3.81,9.74s-2.49,6.48 -3.6,9.82c-0.25,0.11 -0.18,-0.07 -0.2,-0.27c-0.51,2 -1.18,3.81 -1.64,5.67a2.13,2.13 0 0 1 -1,0.67c0.25,-0.11 -0.55,2.42 -1.45,5c-0.46,1.28 -0.92,2.59 -1.28,3.58s-0.65,1.66 -0.69,1.7l0.8,0.28c-0.73,2 -1.19,0.39 -1.67,2.25c0.94,0.94 -1.27,3 -0.87,3.74c-0.09,0 -0.47,0.85 -0.82,0.73c0.55,0.39 -0.2,0.94 -0.25,1.53c0.11,0.24 0.26,-0.11 0.51,-0.22l-0.27,1.33c-0.41,0.46 -0.84,0.51 -0.7,0c-0.79,1.65 -2.88,6.47 -5,11.32s-4.25,9.74 -4.88,11.56c0.69,-0.36 0.83,-1.54 1.78,-1.79c0,1 -0.75,1.36 -0.47,1.88c-1.31,0.12 -1.17,2 -2.64,2.49l0.53,0.41l-0.59,0.39c-1.12,4.32 -0.06,1 -1.84,4.68c-0.85,2.16 -0.4,3.37 -1.26,4.49c0.09,-0.18 0.69,-0.56 0.61,0c-0.61,0 -0.24,1.56 -0.94,1.7c-0.17,0.56 -1,2.3 0,1.88c-0.51,0.21 -1.38,1.74 -1.29,0.73a3.9,3.9 0 0 0 -0.62,1.43l0.53,-0.63c-0.71,1.8 -1.76,2.63 -1.59,4l0.61,-0.58c-0.44,1.07 -0.79,2 -1.75,2.21l0.27,-1.14a16.93,16.93 0 0 0 -1.5,4.41l0.26,-0.52c-0.11,2.05 -4.11,12 -4,13.92l1,-0.64l-0.23,1.6c0.1,-0.18 -1.56,-1.2 -1.3,-1.29c-1,2.21 -5.1,10.9 -8.17,16.91c-1.4,-6.3 -3.21,-14.86 -3.22,-17c0.13,-1.27 1,-0.33 1.05,-0.33c-0.5,-1.47 -0.77,-0.57 -1,-1.85c0,-0.36 0.5,0 0.63,0.21c-0.17,-0.55 0,-1.09 -0.35,-1.1c-0.1,0.72 -0.93,0.51 -1.38,0.86l-0.22,-1.64l0.5,0c0,-0.36 -1.51,-0.77 -1.51,-2.41c-0.23,-2.75 -3.94,-3.49 -4.27,-6.24c0.3,0 0.56,0.57 0.83,1.13a2.78,2.78 0 0 1 -0.06,-1.28c-0.41,0.71 -0.53,-1.11 -0.66,-0.57c-1.52,-1.89 -3,-1.5 -4.1,-3.19c-1.1,0 -13.74,-7.35 -15,-7.24a4.21,4.21 0 0 1 0,-1.3c-0.28,0.17 -0.26,1.28 0,1.85l0.63,0.01z"/>
 </g>
</svg>